<?xml version="1.0" encoding="UTF-8" standalone="no"?>
<!DOCTYPE svg PUBLIC "-//W3C//DTD SVG 1.1//EN" "http://www.w3.org/Graphics/SVG/1.1/DTD/svg11.dtd">
<svg width="1440" height="704" version="1.1" xmlns="http://www.w3.org/2000/svg"><title>Krona (snapshot) - Root</title><defs>	<style type="text/css">	text {font-size: 11px; font-family: sans-serif; dominant-baseline:central}	path {stroke-width:0.27499999999999997;}	path.wedge {stroke:none}	path.line {fill:none;stroke:black;}	line {stroke:black;stroke-width:0.27499999999999997;}	line.tick {stroke-width:0.5499999999999999;}	line.pattern {stroke-width:0.18333333333333332;}	circle {fill:none;stroke:black;stroke-width:0.27499999999999997;}	rect {stroke:black;stroke-width:0.27499999999999997;}	.highlight {stroke:black;stroke-width:1.375;}	.searchHighlight {fill:rgb(255, 255, 100);stroke:none;}	</style><pattern id="hiddenPattern" patternUnits="userSpaceOnUse" x="0" y="0" width="6.6" height="6.6"><line class="pattern" x1="0" y1="0" x2="3.3" y2="3.3"/><line class="pattern" x1="3.3" y1="6.6" x2="6.6" y2="3.3"/></pattern></defs><path class="wedge" fill="rgb(220,220,220)" d=" M 648.1028593982902,422.3315879498995 L 657.4114375931607,633.3263517995979 A 281.6,281.6 0 0,1 645.0000000000001,633.6 L 645,422.4 A 70.4,70.4 0 0 0 648.1028593982902,422.3315879498995 Z "/><path class="wedge" fill="rgb(207,111,111)" d=" M 645,422.4 L 645,633.6 A 281.6,281.6 0 1,1 904.3720135790513,461.65727778833667 L 709.8430033947628,379.41431944708415 A 70.4,70.4 0 1 0 645,422.4 Z "/><path class="wedge" fill="rgb(207,111,111)" d=" M 748.7888392861594,395.11507848567896 L 905.05419748232,460.02950694984486 A 281.6,281.6 0 0,1 904.3720135790513,461.65727778833667 L 748.5165765186847,395.7647293953222 A 112.38786924394677,112.38786924394677 0 0 0 748.7888392861594,395.11507848567896 Z "/><path class="wedge" fill="rgb(210,121,121)" d=" M 645,464.38786924394674 L 645,633.6 A 281.6,281.6 0 1,1 911.111526816463,444.1043717497216 L 751.2063475857801,388.75928298651843 A 112.38786924394677,112.38786924394677 0 1 0 645,464.38786924394674 Z "/><path class="wedge" fill="rgb(210,121,121)" d=" M 782.2644870467144,399.2653973018575 L 911.2571685963231,443.6824965359756 A 281.6,281.6 0 0,1 911.111526816463,444.1043717497216 L 782.1894038318269,399.48288810264177 A 145.1742304484514,145.1742304484514 0 0 0 782.2644870467144,399.2653973018575 Z "/><path class="wedge" fill="rgb(213,130,130)" d=" M 645,497.1742304484514 L 645,633.6 A 281.6,281.6 0 1,1 911.3231483324155,443.49065888007465 L 782.2985018102529,399.16649856582603 A 145.1742304484514,145.1742304484514 0 1 0 645,497.1742304484514 Z "/><path class="wedge" fill="rgb(213,130,130)" d=" M 807.31730262422,407.29104276142016 L 911.5595306877151,442.79965087788105 A 281.6,281.6 0 0,1 911.3231483324155,443.49065888007465 L 807.1733612457175,407.71182139469 A 171.47596374083403,171.47596374083403 0 0 0 807.31730262422,407.29104276142016 Z "/><path class="wedge" fill="rgb(216,140,140)" d=" M 645,523.475963740834 L 645,633.6 A 281.6,281.6 0 1,1 911.6900796092139,442.4154933516993 L 807.396798370418,407.05711597864206 A 171.47596374083403,171.47596374083403 0 1 0 645,523.475963740834 Z "/><path class="wedge" fill="rgb(219,149,149)" d=" M 645,545.0389305660335 L 645,633.6 A 281.6,281.6 0 1,1 912.2515216744796,440.7422343795511 L 828.2029401142993,412.8334730847615 A 193.03893056603354,193.03893056603354 0 1 0 645,545.0389305660335 Z "/><path class="wedge" fill="rgb(219,149,149)" d=" M 698.9361632662337,147.97362371922523 L 716.9710304181971,79.75244577674721 A 281.6,281.6 0 0,1 912.2515216744796,440.7422343795511 L 845.2822749990746,418.50475356950915 A 211.0352385885971,211.0352385885971 0 0 0 698.9361632662337,147.97362371922523 Z "/><path class="wedge" fill="rgb(223,159,159)" d=" M 645,563.0352385885972 L 645,633.6 A 281.6,281.6 0 1,1 704.0095391085173,76.6521576365626 L 689.2226284260266,145.6502215624168 A 211.0352385885971,211.0352385885971 0 1 0 645,563.0352385885972 Z "/><path class="wedge" fill="rgb(223,159,159)" d=" M 680.1416569672574,128.4648265524899 L 688.7328282361437,73.81660773067716 A 281.6,281.6 0 0,1 704.0095391085173,76.6521576365626 L 692.4173078848269,130.74334194070374 A 226.280599748659,226.280599748659 0 0 0 680.1416569672574,128.4648265524899 Z "/><path class="wedge" fill="rgb(226,168,168)" d=" M 645,578.280599748659 L 645,633.6 A 281.6,281.6 0 1,1 687.3294386851038,73.59960736269778 L 679.0139587098345,128.2904551980437 A 226.280599748659,226.280599748659 0 1 0 645,578.280599748659 Z "/><path class="wedge" fill="rgb(226,186,168)" d=" M 679.0139587098345,128.2904551980437 L 687.3294386851038,73.59960736269778 A 281.6,281.6 0 0,1 688.7328282361437,73.81660773067716 L 680.1416569672574,128.4648265524899 A 226.280599748659,226.280599748659 0 0 0 679.0139587098345,128.2904551980437 Z "/><path class="wedge" fill="url(#hiddenPattern)" d=" M 679.0139587098345,128.2904551980437 L 687.3294386851038,73.59960736269778 A 281.6,281.6 0 0,1 688.7328282361437,73.81660773067716 L 680.1416569672574,128.4648265524899 A 226.280599748659,226.280599748659 0 0 0 679.0139587098345,128.2904551980437 Z "/><path class="wedge" fill="rgb(219,172,149)" d=" M 689.2226284260266,145.6502215624168 L 704.0095391085173,76.6521576365626 A 281.6,281.6 0 0,1 716.9710304181971,79.75244577674721 L 698.9361632662337,147.97362371922523 A 211.0352385885971,211.0352385885971 0 0 0 689.2226284260266,145.6502215624168 Z "/><path class="wedge" fill="url(#hiddenPattern)" d=" M 689.2226284260266,145.6502215624168 L 704.0095391085173,76.6521576365626 A 281.6,281.6 0 0,1 716.9710304181971,79.75244577674721 L 698.9361632662337,147.97362371922523 A 211.0352385885971,211.0352385885971 0 0 0 689.2226284260266,145.6502215624168 Z "/><path class="wedge" fill="rgb(216,176,140)" d=" M 828.2029401142993,412.8334730847615 L 912.2515216744796,440.7422343795511 A 281.6,281.6 0 0,1 911.6900796092139,442.4154933516993 L 827.8180673307279,413.9805047699302 A 193.03893056603354,193.03893056603354 0 0 0 828.2029401142993,412.8334730847615 Z "/><path class="wedge" fill="url(#hiddenPattern)" d=" M 828.2029401142993,412.8334730847615 L 912.2515216744796,440.7422343795511 A 281.6,281.6 0 0,1 911.6900796092139,442.4154933516993 L 827.8180673307279,413.9805047699302 A 193.03893056603354,193.03893056603354 0 0 0 828.2029401142993,412.8334730847615 Z "/><path class="wedge" fill="rgb(213,170,130)" d=" M 807.396798370418,407.05711597864206 L 911.6900796092139,442.4154933516993 A 281.6,281.6 0 0,1 911.5595306877151,442.79965087788105 L 807.31730262422,407.29104276142016 A 171.47596374083403,171.47596374083403 0 0 0 807.396798370418,407.05711597864206 Z "/><path class="wedge" fill="url(#hiddenPattern)" d=" M 807.396798370418,407.05711597864206 L 911.6900796092139,442.4154933516993 A 281.6,281.6 0 0,1 911.5595306877151,442.79965087788105 L 807.31730262422,407.29104276142016 A 171.47596374083403,171.47596374083403 0 0 0 807.396798370418,407.05711597864206 Z "/><path class="wedge" fill="rgb(210,164,121)" d=" M 782.2985018102529,399.16649856582603 L 911.3231483324155,443.49065888007465 A 281.6,281.6 0 0,1 911.2571685963231,443.6824965359756 L 782.2644870467144,399.2653973018575 A 145.1742304484514,145.1742304484514 0 0 0 782.2985018102529,399.16649856582603 Z "/><path class="wedge" fill="url(#hiddenPattern)" d=" M 782.2985018102529,399.16649856582603 L 911.3231483324155,443.49065888007465 A 281.6,281.6 0 0,1 911.2571685963231,443.6824965359756 L 782.2644870467144,399.2653973018575 A 145.1742304484514,145.1742304484514 0 0 0 782.2985018102529,399.16649856582603 Z "/><path class="wedge" fill="rgb(207,159,111)" d=" M 751.2063475857801,388.75928298651843 L 911.111526816463,444.1043717497216 A 281.6,281.6 0 0,1 905.05419748232,460.02950694984486 L 748.7888392861594,395.11507848567896 A 112.38786924394677,112.38786924394677 0 0 0 751.2063475857801,388.75928298651843 Z "/><path class="wedge" fill="url(#hiddenPattern)" d=" M 751.2063475857801,388.75928298651843 L 911.111526816463,444.1043717497216 A 281.6,281.6 0 0,1 905.05419748232,460.02950694984486 L 748.7888392861594,395.11507848567896 A 112.38786924394677,112.38786924394677 0 0 0 751.2063475857801,388.75928298651843 Z "/><path class="wedge" fill="rgb(159,207,111)" d=" M 709.8430033947628,379.41431944708415 L 904.3720135790513,461.65727778833667 A 281.6,281.6 0 0,1 658.4652312425076,633.2778831468727 L 648.366307810627,422.31947078671817 A 70.4,70.4 0 0 0 709.8430033947628,379.41431944708415 Z "/><path class="wedge" fill="rgb(101,204,204)" d=" M 648.366307810627,422.31947078671817 L 658.4652312425076,633.2778831468727 A 281.6,281.6 0 0,1 657.4317045455856,633.3254569392739 L 648.1079261363964,422.33136423481847 A 70.4,70.4 0 0 0 648.366307810627,422.31947078671817 Z "/><path class="wedge" fill="url(#hiddenPattern)" d=" M 648.366307810627,422.31947078671817 L 658.4652312425076,633.2778831468727 A 281.6,281.6 0 0,1 657.4317045455856,633.3254569392739 L 648.1079261363964,422.33136423481847 A 70.4,70.4 0 0 0 648.366307810627,422.31947078671817 Z "/><rect fill="rgb(101,204,204)" x="1407.44" y="612.7733333333334" width="22" height="22"/><rect fill="url(#hiddenPattern)" style="stroke:none" x="1407.44" y="612.7733333333334" width="22" height="22"/><path class="line" d="M 657.9484897428073,633.3021447009967 L 659.971691265121,677.2556048105273 A 325.6,325.6 0 0,0 824.3170803043839,623.7733333333334 L 988.2,623.7733333333334 L 1305.6066666666668,623.7733333333334"/><text x="1400.1066666666668" y="623.7733333333334" style="font-color:black;font-weight:normal" text-anchor="end">Viruses   0.06%</text><path class="wedge" fill="rgb(159,111,207)" d=" M 648.1079261363964,422.33136423481847 L 657.4317045455856,633.3254569392739 A 281.6,281.6 0 0,1 657.4114375931607,633.3263517995979 L 648.1028593982902,422.3315879498995 A 70.4,70.4 0 0 0 648.1079261363964,422.33136423481847 Z "/><rect fill="rgb(159,111,207)" x="1407.44" y="642.1066666666668" width="22" height="22"/><path class="line" d="M 657.4215710774315,633.3259045519419 L 659.75061565445,686.074511655431 A 334.40000000000003,334.40000000000003 0 0,0 790.4583627327381,653.1066666666668 L 977.2,653.1066666666668 L 1243.6066666666668,653.1066666666668"/><text x="1400.1066666666668" y="653.1066666666668" style="font-color:black;font-weight:normal" text-anchor="end">Pyrolobus fumarii   0.001%</text><circle cx="645" cy="352" r="70.4"/><circle cx="645" cy="352" r="281.6"/><text x="645" y="352" text-anchor="middle" style="font-color:black;font-weight:bold" transform="rotate(360,645,352)">Root</text><rect fill="rgb(220,220,220)" x="1407.44" y="671.44" width="22" height="22"/><path class="line" d="M 651.2072269667402,633.5315796378505 L 652.5650578657146,695.1166126836304 A 343.2,343.2 0 0,0 737.7127089454295,682.44 L 966.2,682.44 L 1287.6066666666668,682.44"/><text x="1400.1066666666668" y="682.44" style="font-color:black;font-weight:normal" text-anchor="end">[other Root]   0.7%</text><path class="line" d=" M 709.8430033947628,379.41431944708415 A 70.4,70.4 0 1 0 645,422.4"/><line x1="904.3720135790513" y1="461.65727778833667" x2="709.8430033947628" y2="379.41431944708415"/><text x="645" y="269.00363922681595" text-anchor="middle" style="font-color:black;font-weight:normal" transform="rotate(326.45883256704536,645,352)">Bacteria</text><path class="line" d=" M 751.2063475857801,388.75928298651843 A 112.38786924394677,112.38786924394677 0 1 0 645,464.38786924394674"/><line x1="911.111526816463" y1="444.1043717497216" x2="751.2063475857801" y2="388.75928298651843"/><text x="645" y="229.77622239470185" text-anchor="middle" style="font-color:black;font-weight:normal" transform="rotate(324.5456734352248,645,352)">Proteobacteria</text><path class="line" d=" M 782.2985018102529,399.16649856582603 A 145.1742304484514,145.1742304484514 0 1 0 645,497.1742304484514"/><line x1="911.3231483324155" y1="443.49065888007465" x2="782.2985018102529" y2="399.16649856582603"/><text x="645" y="193.6749029053573" text-anchor="middle" style="font-color:black;font-weight:normal" transform="rotate(324.47963126454704,645,352)">Gammaproteobacteria</text><path class="line" d=" M 807.396798370418,407.05711597864206 A 171.47596374083403,171.47596374083403 0 1 0 645,523.475963740834"/><line x1="911.6900796092139" y1="442.4154933516993" x2="807.396798370418" y2="407.05711597864206"/><text x="645" y="169.7425528465662" text-anchor="middle" style="font-color:black;font-weight:normal" transform="rotate(324.36405746586104,645,352)">Enterobacterales</text><path class="line" d=" M 828.2029401142993,412.8334730847615 A 193.03893056603354,193.03893056603354 0 1 0 645,545.0389305660335"/><line x1="912.2515216744796" y1="440.7422343795511" x2="828.2029401142993" y2="412.8334730847615"/><text x="645" y="149.9629154226847" text-anchor="middle" style="font-color:black;font-weight:normal" transform="rotate(324.1845053143309,645,352)">Enterobacteriaceae</text><path class="line" d=" M 689.2226284260266,145.6502215624168 A 211.0352385885971,211.0352385885971 0 1 0 645,563.0352385885972"/><line x1="704.0095391085173" y1="76.6521576365626" x2="689.2226284260266" y2="145.6502215624168"/><text x="645" y="133.34208083137193" text-anchor="middle" style="font-color:black;font-weight:normal" transform="rotate(276.04801816159693,645,352)">Escherichia</text><path class="line" d=" M 679.0139587098345,128.2904551980437 A 226.280599748659,226.280599748659 0 1 0 645,578.280599748659"/><line x1="687.3294386851038" y1="73.59960736269778" x2="679.0139587098345" y2="128.2904551980437"/><text x="391.0597001256705" y="352" text-anchor="end" style="font-color:black;font-weight:normal" transform="rotate(4.3226664526411165,645,352)">Escherichia coli   52%</text><path class="line" d=" M 680.1416569672574,128.4648265524899 A 226.280599748659,226.280599748659 0 0 0 679.0139587098345,128.2904551980437"/><line x1="688.7328282361437" y1="73.81660773067716" x2="680.1416569672574" y2="128.4648265524899"/><line x1="918.35" y1="352" x2="934.85" y2="352" class="tick" transform="rotate(283.45196463992113,645,352)"/><text x="937.6" y="352" text-anchor="start" style="font-color:black;font-weight:normal" transform="rotate(283.45196463992113,645,352)">10 more</text><path class="line" d=" M 698.9361632662337,147.97362371922523 A 211.0352385885971,211.0352385885971 0 0 0 689.2226284260266,145.6502215624168"/><line x1="716.9710304181971" y1="79.75244577674721" x2="698.9361632662337" y2="147.97362371922523"/><path class="line" d=" M 827.8180673307279,413.9805047699302 A 193.03893056603354,193.03893056603354 0 0 0 828.2029401142993,412.8334730847615"/><path class="line" d=" M 807.31730262422,407.29104276142016 A 171.47596374083403,171.47596374083403 0 0 0 807.396798370418,407.05711597864206"/><line x1="911.5595306877151" y1="442.79965087788105" x2="807.31730262422" y2="407.29104276142016"/><path class="line" d=" M 782.2644870467144,399.2653973018575 A 145.1742304484514,145.1742304484514 0 0 0 782.2985018102529,399.16649856582603"/><line x1="911.2571685963231" y1="443.6824965359756" x2="782.2644870467144" y2="399.2653973018575"/><line x1="918.35" y1="352" x2="934.85" y2="352" class="tick" transform="rotate(380.8249538507401,645,352)"/><text x="937.6" y="352" text-anchor="start" style="font-color:black;font-weight:normal" transform="rotate(380.8249538507401,645,352)">6 more</text><path class="line" d=" M 748.7888392861594,395.11507848567896 A 112.38786924394677,112.38786924394677 0 0 0 751.2063475857801,388.75928298651843"/><line x1="905.05419748232" y1="460.02950694984486" x2="748.7888392861594" y2="395.11507848567896"/><path class="line" d=" M 648.366307810627,422.31947078671817 A 70.4,70.4 0 0 0 709.8430033947628,379.41431944708415"/><line x1="658.4652312425076" y1="633.2778831468727" x2="648.366307810627" y2="422.31947078671817"/><text x="821" y="352" text-anchor="start" style="font-color:black;font-weight:normal" transform="rotate(415.0884575254824,645,352)">18%   No hits</text><path class="line" d=" M 648.1079261363964,422.33136423481847 A 70.4,70.4 0 0 0 648.366307810627,422.31947078671817"/><line x1="657.4317045455856" y1="633.3254569392739" x2="648.1079261363964" y2="422.33136423481847"/><line x1="657.4114375931607" y1="633.3263517995979" x2="648.1028593982902" y2="422.3315879498995"/><path class="line" d=" M 648.1028593982902,422.3315879498995 A 70.4,70.4 0 0 0 648.1079261363964,422.33136423481847"/></svg>