<?xml version="1.0" standalone="no"?><!DOCTYPE svg PUBLIC "-//W3C//DTD SVG 1.1//EN" 	"http://www.w3.org/Graphics/SVG/1.1/DTD/svg11.dtd"><svg width="1436" height="711" version="1.1"	xmlns="http://www.w3.org/2000/svg"><title>Krona (snapshot) - Root</title><defs>	<style type="text/css">	text {font-size: 11px; font-family: sans-serif; dominant-baseline:central}	path {stroke-width:0.27499999999999997;}	path.wedge {stroke:none}	path.line {fill:none;stroke:black;}	line {stroke:black;stroke-width:0.27499999999999997;}	line.tick {stroke-width:0.5499999999999999;}	line.pattern {stroke-width:0.18333333333333332;}	circle {fill:none;stroke:black;stroke-width:0.27499999999999997;}	rect {stroke:black;stroke-width:0.27499999999999997;}	.highlight {stroke:black;stroke-width:1.375;}	.searchHighlight {fill:rgb(255, 255, 100);stroke:none;}	</style><pattern id="hiddenPattern" patternUnits="userSpaceOnUse" x="0" y="0" width="6.6" height="6.6"><line class="pattern" x1="0" y1="0" x2="3.3" y2="3.3"/><line class="pattern" x1="3.3" y1="6.6" x2="6.6" y2="3.3"/></pattern></defs><path class="wedge" fill="rgb(220,220,220)" d=" M 643.6276646164168,426.5972294616977 L 645.5106584656675,639.8889178467908 A 284.4,284.4 0 0,1 643.0000000000001,639.9 L 643,426.6 A 71.1,71.1 0 0 0 643.6276646164168,426.5972294616977 Z "/><path class="wedge" fill="rgb(207,111,111)" d=" M 643,426.6 L 643,639.9 A 284.4,284.4 0 1,1 889.845666577914,496.74651107799184 L 704.7114166444785,390.81162776949793 A 71.1,71.1 0 1 0 643,426.6 Z "/><path class="wedge" fill="rgb(207,111,111)" d=" M 745.8066586310722,410.76190041597135 L 893.5030834589306,490.1535004282028 A 284.4,284.4 0 0,1 889.845666577914,496.74651107799184 L 744.3056519226266,413.46767707095216 A 116.7179793196856,116.7179793196856 0 0 0 745.8066586310722,410.76190041597135 Z "/><path class="wedge" fill="rgb(210,121,121)" d=" M 643,472.2179793196856 L 643,639.9 A 284.4,284.4 0 1,1 903.1749761230767,240.64207994501868 L 749.7760108390751,308.3622210348825 A 116.7179793196856,116.7179793196856 0 1 0 643,472.2179793196856 Z "/><path class="wedge" fill="rgb(210,121,121)" d=" M 778.0184597064357,291.0529870873187 L 899.66088925294,232.99062106152832 A 284.4,284.4 0 0,1 903.1749761230767,240.64207994501868 L 779.8670724727262,295.07809662373063 A 149.61083495143566,149.61083495143566 0 0 0 778.0184597064357,291.0529870873187 Z "/><path class="wedge" fill="rgb(213,130,130)" d=" M 643,505.11083495143566 L 643,639.9 A 284.4,284.4 0 1,1 873.8292457581417,189.36385311219166 L 764.4295224651396,268.1027860355156 A 149.61083495143566,149.61083495143566 0 1 0 643,505.11083495143566 Z "/><path class="wedge" fill="rgb(213,130,130)" d=" M 781.4917358811285,249.45895846371644 L 868.8086424598499,182.60171490023484 A 284.4,284.4 0 0,1 873.8292457581417,189.36385311219166 L 784.5709451548594,253.60627651602937 A 174.42667054515513,174.42667054515513 0 0 0 781.4917358811285,249.45895846371644 Z "/><path class="wedge" fill="rgb(216,140,140)" d=" M 643,529.9266705451552 L 643,639.9 A 284.4,284.4 0 1,1 745.3336607359709,90.14894595955491 L 705.7627275909736,192.75632601293117 A 174.42667054515513,174.42667054515513 0 1 0 643,529.9266705451552 Z "/><path class="wedge" fill="rgb(216,140,140)" d=" M 711.8489006807785,174.33738037871805 L 744.0330420691508,89.65101201950534 A 284.4,284.4 0 0,1 745.3336607359709,90.14894595955491 L 712.735206423747,174.6766971376908 A 193.80419467337902,193.80419467337902 0 0 0 711.8489006807785,174.33738037871805 Z "/><path class="wedge" fill="rgb(219,149,149)" d=" M 643,549.304194673379 L 643,639.9 A 284.4,284.4 0 1,1 734.8616812582728,86.34429874809734 L 705.5990828326378,172.08402277470609 A 193.80419467337902,193.80419467337902 0 1 0 643,549.304194673379 Z "/><path class="wedge" fill="rgb(219,149,149)" d=" M 710.4399159221985,157.31088898870019 L 734.6168621870405,86.26086732608718 A 284.4,284.4 0 0,1 734.8616812582728,86.34429874809734 L 710.6201292277617,157.37230353566585 A 209.34914851281943,209.34914851281943 0 0 0 710.4399159221985,157.31088898870019 Z "/><path class="wedge" fill="rgb(223,159,159)" d=" M 643,564.8491485128194 L 643,639.9 A 284.4,284.4 0 1,1 734.4664583175208,86.2097346674982 L 710.3292024129968,157.2732498236622 A 209.34914851281943,209.34914851281943 0 1 0 643,564.8491485128194 Z "/><path class="wedge" fill="rgb(223,159,159)" d=" M 712.0699927991478,144.41990944560757 L 731.4470583161974,85.20298211927832 A 284.4,284.4 0 0,1 734.4664583175208,86.2097346674982 L 714.4278997812387,145.20610168964444 A 222.09337796009325,222.09337796009325 0 0 0 712.0699927991478,144.41990944560757 Z "/><path class="wedge" fill="rgb(226,168,168)" d=" M 643,577.5933779600932 L 643,639.9 A 284.4,284.4 0 1,1 729.3850228013366,84.53692532816848 L 710.4597099828007,143.89977300871993 A 222.09337796009325,222.09337796009325 0 1 0 643,577.5933779600932 Z "/><path class="wedge" fill="rgb(226,186,168)" d=" M 710.4597099828007,143.89977300871993 L 729.3850228013366,84.53692532816848 A 284.4,284.4 0 0,1 731.4470583161974,85.20298211927832 L 712.0699927991478,144.41990944560757 A 222.09337796009325,222.09337796009325 0 0 0 710.4597099828007,143.89977300871993 Z "/><path class="wedge" fill="url(#hiddenPattern)" d=" M 710.4597099828007,143.89977300871993 L 729.3850228013366,84.53692532816848 A 284.4,284.4 0 0,1 731.4470583161974,85.20298211927832 L 712.0699927991478,144.41990944560757 A 222.09337796009325,222.09337796009325 0 0 0 710.4597099828007,143.89977300871993 Z "/><path class="wedge" fill="rgb(219,172,149)" d=" M 710.3292024129968,157.2732498236622 L 734.4664583175208,86.2097346674982 A 284.4,284.4 0 0,1 734.6168621870405,86.26086732608718 L 710.4399159221985,157.31088898870019 A 209.34914851281943,209.34914851281943 0 0 0 710.3292024129968,157.2732498236622 Z "/><path class="wedge" fill="url(#hiddenPattern)" d=" M 710.3292024129968,157.2732498236622 L 734.4664583175208,86.2097346674982 A 284.4,284.4 0 0,1 734.6168621870405,86.26086732608718 L 710.4399159221985,157.31088898870019 A 209.34914851281943,209.34914851281943 0 0 0 710.3292024129968,157.2732498236622 Z "/><path class="wedge" fill="rgb(216,165,140)" d=" M 705.5990828326378,172.08402277470609 L 734.8616812582728,86.34429874809734 A 284.4,284.4 0 0,1 744.0330420691508,89.65101201950534 L 711.8489006807785,174.33738037871805 A 193.80419467337902,193.80419467337902 0 0 0 705.5990828326378,172.08402277470609 Z "/><path class="wedge" fill="url(#hiddenPattern)" d=" M 705.5990828326378,172.08402277470609 L 734.8616812582728,86.34429874809734 A 284.4,284.4 0 0,1 744.0330420691508,89.65101201950534 L 711.8489006807785,174.33738037871805 A 193.80419467337902,193.80419467337902 0 0 0 705.5990828326378,172.08402277470609 Z "/><path class="wedge" fill="rgb(216,165,140)" d=" M 705.7627275909736,192.75632601293117 L 745.3336607359709,90.14894595955491 A 284.4,284.4 0 0,1 868.8086424598499,182.60171490023484 L 781.4917358811285,249.45895846371644 A 174.42667054515513,174.42667054515513 0 0 0 705.7627275909736,192.75632601293117 Z "/><path class="wedge" fill="rgb(216,165,140)" d=" M 796.7963722275395,237.57315079828035 L 868.6901009559022,182.4470071610586 A 284.4,284.4 0 0,1 868.8086424598499,182.60171490023484 L 796.8771522581582,237.67857628632814 A 193.80419467337902,193.80419467337902 0 0 0 796.7963722275395,237.57315079828035 Z "/><path class="wedge" fill="rgb(219,172,149)" d=" M 712.735206423747,174.6766971376908 L 745.3336607359709,90.14894595955491 A 284.4,284.4 0 0,1 866.0533999374609,179.06150993522093 L 794.9995940367044,235.2661059198611 A 193.80419467337902,193.80419467337902 0 0 0 712.735206423747,174.6766971376908 Z "/><path class="wedge" fill="rgb(219,172,149)" d=" M 807.1290644963601,225.54340659053815 L 865.9686926092584,178.9544757969831 A 284.4,284.4 0 0,1 866.0533999374609,179.06150993522093 L 807.1914182482307,225.62219528850545 A 209.34914851281943,209.34914851281943 0 0 0 807.1290644963601,225.54340659053815 Z "/><path class="wedge" fill="rgb(223,180,159)" d=" M 718.3286383237527,160.17293523084982 L 745.3336607359709,90.14894595955491 A 284.4,284.4 0 0,1 865.9154394774321,178.88724043098335 L 807.08986443376,225.4939140918673 A 209.34914851281943,209.34914851281943 0 0 0 718.3286383237527,160.17293523084982 Z "/><path class="wedge" fill="rgb(223,180,159)" d=" M 815.183953978655,215.22115438883444 L 863.4888635640838,175.86698231054842 A 284.4,284.4 0 0,1 865.9154394774321,178.88724043098335 L 817.0789133368553,217.579731492487 A 222.09337796009325,222.09337796009325 0 0 0 815.183953978655,215.22115438883444 Z "/><path class="wedge" fill="rgb(226,187,168)" d=" M 722.9143051753655,148.28230683152705 L 745.3336607359709,90.14894595955491 A 284.4,284.4 0 0,1 823.2439810357142,135.51030183120605 L 783.7559585274148,183.70585378787345 A 222.09337796009325,222.09337796009325 0 0 0 722.9143051753655,148.28230683152705 Z "/><path class="wedge" fill="rgb(226,187,168)" d=" M 727.5939256284905,138.6891449005383 L 746.3753750661834,90.55303959107988 A 284.4,284.4 0 0,1 823.2439810357142,135.51030183120605 L 790.4968861487217,175.47847984579903 A 232.7296266962983,232.7296266962983 0 0 0 727.5939256284905,138.6891449005383 Z "/><path class="wedge" fill="rgb(229,195,178)" d=" M 726.7414720870188,138.35846782594209 L 745.3336607359709,90.14894595955491 A 284.4,284.4 0 0,1 746.3753750661834,90.55303959107988 L 727.5939256284905,138.6891449005383 A 232.7296266962983,232.7296266962983 0 0 0 726.7414720870188,138.35846782594209 Z "/><path class="wedge" fill="url(#hiddenPattern)" d=" M 726.7414720870188,138.35846782594209 L 745.3336607359709,90.14894595955491 A 284.4,284.4 0 0,1 746.3753750661834,90.55303959107988 L 727.5939256284905,138.6891449005383 A 232.7296266962983,232.7296266962983 0 0 0 726.7414720870188,138.35846782594209 Z "/><path class="wedge" fill="rgb(226,189,168)" d=" M 783.7559585274148,183.70585378787345 L 823.2439810357142,135.51030183120605 A 284.4,284.4 0 0,1 856.8507356557227,168.0134061872525 L 810.0001134354094,209.08814717965888 A 222.09337796009325,222.09337796009325 0 0 0 783.7559585274148,183.70585378787345 Z "/><path class="wedge" fill="rgb(226,190,168)" d=" M 810.0001134354094,209.08814717965888 L 856.8507356557227,168.0134061872525 A 284.4,284.4 0 0,1 863.4888635640838,175.86698231054842 L 815.183953978655,215.22115438883444 A 222.09337796009325,222.09337796009325 0 0 0 810.0001134354094,209.08814717965888 Z "/><path class="wedge" fill="url(#hiddenPattern)" d=" M 810.0001134354094,209.08814717965888 L 856.8507356557227,168.0134061872525 A 284.4,284.4 0 0,1 863.4888635640838,175.86698231054842 L 815.183953978655,215.22115438883444 A 222.09337796009325,222.09337796009325 0 0 0 810.0001134354094,209.08814717965888 Z "/><path class="wedge" fill="rgb(219,176,149)" d=" M 807.08986443376,225.4939140918673 L 865.9154394774321,178.88724043098335 A 284.4,284.4 0 0,1 865.9686926092584,178.9544757969831 L 807.1290644963601,225.54340659053815 A 209.34914851281943,209.34914851281943 0 0 0 807.08986443376,225.4939140918673 Z "/><path class="wedge" fill="url(#hiddenPattern)" d=" M 807.08986443376,225.4939140918673 L 865.9154394774321,178.88724043098335 A 284.4,284.4 0 0,1 865.9686926092584,178.9544757969831 L 807.1290644963601,225.54340659053815 A 209.34914851281943,209.34914851281943 0 0 0 807.08986443376,225.4939140918673 Z "/><path class="wedge" fill="rgb(216,169,140)" d=" M 794.9995940367044,235.2661059198611 L 866.0533999374609,179.06150993522093 A 284.4,284.4 0 0,1 868.6901009559022,182.4470071610586 L 796.7963722275395,237.57315079828035 A 193.80419467337902,193.80419467337902 0 0 0 794.9995940367044,235.2661059198611 Z "/><path class="wedge" fill="url(#hiddenPattern)" d=" M 794.9995940367044,235.2661059198611 L 866.0533999374609,179.06150993522093 A 284.4,284.4 0 0,1 868.6901009559022,182.4470071610586 L 796.7963722275395,237.57315079828035 A 193.80419467337902,193.80419467337902 0 0 0 794.9995940367044,235.2661059198611 Z "/><path class="wedge" fill="rgb(213,162,130)" d=" M 764.4295224651396,268.1027860355156 L 873.8292457581417,189.36385311219166 A 284.4,284.4 0 0,1 891.7260066302331,217.59157521827308 L 773.8442529046606,282.95219909131004 A 149.61083495143566,149.61083495143566 0 0 0 764.4295224651396,268.1027860355156 Z "/><path class="wedge" fill="rgb(213,162,130)" d=" M 795.4088256276302,270.66950272293167 L 891.5002429561193,217.18518065388054 A 284.4,284.4 0 0,1 891.7260066302331,217.59157521827308 L 795.5472897837684,270.9187504402124 A 174.42667054515513,174.42667054515513 0 0 0 795.4088256276302,270.66950272293167 Z "/><path class="wedge" fill="rgb(216,169,140)" d=" M 784.5709451548594,253.60627651602937 L 873.8292457581417,189.36385311219166 A 284.4,284.4 0 0,1 890.5368387565379,215.4683126630986 L 794.817955772067,269.6165225281439 A 174.42667054515513,174.42667054515513 0 0 0 784.5709451548594,253.60627651602937 Z "/><path class="wedge" fill="rgb(216,169,140)" d=" M 811.6411370072717,260.00009014720683 L 890.4742068699717,215.35765474319172 A 284.4,284.4 0 0,1 890.5368387565379,215.4683126630986 L 811.6838174655588,260.0754979146182 A 193.80419467337902,193.80419467337902 0 0 0 811.6411370072717,260.00009014720683 Z "/><path class="wedge" fill="rgb(219,176,149)" d=" M 800.2984391041496,242.28663096438152 L 873.8292457581417,189.36385311219166 A 284.4,284.4 0 0,1 890.270188008302,214.9979924615346 L 811.5021084869338,259.75499851974223 A 193.80419467337902,193.80419467337902 0 0 0 800.2984391041496,242.28663096438152 Z "/><path class="wedge" fill="rgb(219,176,149)" d=" M 824.752419513693,251.6100390607394 L 889.909951518284,214.36589412463528 A 284.4,284.4 0 0,1 890.270188008302,214.9979924615346 L 825.017592518083,252.0753317773577 A 209.34914851281943,209.34914851281943 0 0 0 824.752419513693,251.6100390607394 Z "/><path class="wedge" fill="rgb(223,184,159)" d=" M 812.9152814744139,233.2058337265704 L 873.8292457581417,189.36385311219166 A 284.4,284.4 0 0,1 884.4968156350801,205.29131836636026 L 820.767766250919,244.9301701855286 A 209.34914851281943,209.34914851281943 0 0 0 812.9152814744139,233.2058337265704 Z "/><path class="wedge" fill="rgb(219,177,149)" d=" M 820.767766250919,244.9301701855286 L 884.4968156350801,205.29131836636026 A 284.4,284.4 0 0,1 889.909951518284,214.36589412463528 L 824.752419513693,251.6100390607394 A 209.34914851281943,209.34914851281943 0 0 0 820.767766250919,244.9301701855286 Z "/><path class="wedge" fill="url(#hiddenPattern)" d=" M 820.767766250919,244.9301701855286 L 884.4968156350801,205.29131836636026 A 284.4,284.4 0 0,1 889.909951518284,214.36589412463528 L 824.752419513693,251.6100390607394 A 209.34914851281943,209.34914851281943 0 0 0 820.767766250919,244.9301701855286 Z "/><path class="wedge" fill="rgb(216,170,140)" d=" M 811.5021084869338,259.75499851974223 L 890.270188008302,214.9979924615346 A 284.4,284.4 0 0,1 890.4742068699717,215.35765474319172 L 811.6411370072717,260.00009014720683 A 193.80419467337902,193.80419467337902 0 0 0 811.5021084869338,259.75499851974223 Z "/><path class="wedge" fill="url(#hiddenPattern)" d=" M 811.5021084869338,259.75499851974223 L 890.270188008302,214.9979924615346 A 284.4,284.4 0 0,1 890.4742068699717,215.35765474319172 L 811.6411370072717,260.00009014720683 A 193.80419467337902,193.80419467337902 0 0 0 811.5021084869338,259.75499851974223 Z "/><path class="wedge" fill="rgb(213,163,130)" d=" M 794.817955772067,269.6165225281439 L 890.5368387565379,215.4683126630986 A 284.4,284.4 0 0,1 891.5002429561193,217.18518065388054 L 795.4088256276302,270.66950272293167 A 174.42667054515513,174.42667054515513 0 0 0 794.817955772067,269.6165225281439 Z "/><path class="wedge" fill="url(#hiddenPattern)" d=" M 794.817955772067,269.6165225281439 L 890.5368387565379,215.4683126630986 A 284.4,284.4 0 0,1 891.5002429561193,217.18518065388054 L 795.4088256276302,270.66950272293167 A 174.42667054515513,174.42667054515513 0 0 0 794.817955772067,269.6165225281439 Z "/><path class="wedge" fill="rgb(210,157,121)" d=" M 773.8442529046606,282.95219909131004 L 891.7260066302331,217.59157521827308 A 284.4,284.4 0 0,1 899.66088925294,232.99062106152832 L 778.0184597064357,291.0529870873187 A 149.61083495143566,149.61083495143566 0 0 0 773.8442529046606,282.95219909131004 Z "/><path class="wedge" fill="url(#hiddenPattern)" d=" M 773.8442529046606,282.95219909131004 L 891.7260066302331,217.59157521827308 A 284.4,284.4 0 0,1 899.66088925294,232.99062106152832 L 778.0184597064357,291.0529870873187 A 149.61083495143566,149.61083495143566 0 0 0 773.8442529046606,282.95219909131004 Z "/><path class="wedge" fill="rgb(210,157,121)" d=" M 749.7760108390751,308.3622210348825 L 903.1749761230767,240.64207994501868 A 284.4,284.4 0 0,1 900.6495051509978,475.91632985374497 L 748.7395556045759,404.9189546329882 A 116.7179793196856,116.7179793196856 0 0 0 749.7760108390751,308.3622210348825 Z "/><path class="wedge" fill="rgb(210,157,121)" d=" M 778.5415763640394,418.83942699154295 L 900.6552983642239,475.90393359372763 A 284.4,284.4 0 0,1 900.6495051509978,475.91632985374497 L 778.5385287991035,418.845948140669 A 149.61083495143566,149.61083495143566 0 0 0 778.5415763640394,418.83942699154295 Z "/><path class="wedge" fill="rgb(213,164,130)" d=" M 779.8670724727262,295.07809662373063 L 903.1749761230767,240.64207994501868 A 284.4,284.4 0 0,1 900.6750755725176,475.8616028004668 L 778.5519803184903,418.81715854806924 A 149.61083495143566,149.61083495143566 0 0 0 779.8670724727262,295.07809662373063 Z "/><path class="wedge" fill="rgb(213,164,130)" d=" M 801.1088320135873,429.1631565761833 L 900.7940155833194,475.60664232017837 A 284.4,284.4 0 0,1 900.6750755725176,475.8616028004668 L 801.0358843691472,429.31952755964784 A 174.42667054515513,174.42667054515513 0 0 0 801.1088320135873,429.1631565761833 Z "/><path class="wedge" fill="rgb(216,171,140)" d=" M 802.5691098604553,285.055961389128 L 903.1749761230767,240.64207994501868 A 284.4,284.4 0 0,1 901.0697195423162,475.01309491160487 L 801.2779252752748,428.7991252882502 A 174.42667054515513,174.42667054515513 0 0 0 802.5691098604553,285.055961389128 Z "/><path class="wedge" fill="rgb(216,171,140)" d=" M 818.8690870404121,436.92561081483507 L 901.0809380240083,474.9888673837357 A 284.4,284.4 0 0,1 901.0697195423162,475.01309491160487 L 818.8614422133733,436.94212064791384 A 193.80419467337902,193.80419467337902 0 0 0 818.8690870404121,436.92561081483507 Z "/><path class="wedge" fill="rgb(219,178,149)" d=" M 820.2960679384616,277.2301452246308 L 903.1749761230767,240.64207994501868 A 284.4,284.4 0 0,1 901.0862660060411,474.97735893908504 L 818.8727177902963,436.9177683927272 A 193.80419467337902,193.80419467337902 0 0 0 820.2960679384616,277.2301452246308 Z "/><path class="wedge" fill="rgb(219,178,149)" d=" M 833.2146376343185,442.9383074669647 L 901.4058417600277,474.2845989356007 A 284.4,284.4 0 0,1 901.0862660060411,474.97735893908504 L 832.9793953277698,443.4482537287551 A 209.34914851281943,209.34914851281943 0 0 0 833.2146376343185,442.9383074669647 Z "/><path class="wedge" fill="rgb(223,185,159)" d=" M 834.5169117992589,270.95215273043664 L 903.1749761230767,240.64207994501868 A 284.4,284.4 0 0,1 901.610916502201,473.83745757743645 L 833.3655948166513,442.60916308371384 A 209.34914851281943,209.34914851281943 0 0 0 834.5169117992589,270.95215273043664 Z "/><path class="wedge" fill="rgb(223,185,159)" d=" M 845.6111534910942,446.46256930591335 L 902.4521844015587,471.98143203643895 A 284.4,284.4 0 0,1 901.610916502201,473.83745757743645 L 844.954191361918,447.9119750090791 A 222.09337796009325,222.09337796009325 0 0 0 845.6111534910942,446.46256930591335 Z "/><path class="wedge" fill="rgb(226,192,168)" d=" M 846.1755953159659,265.8052621291099 L 903.1749761230767,240.64207994501868 A 284.4,284.4 0 0,1 902.9970216524001,470.76017843071975 L 846.0366272796944,445.50886909972445 A 222.09337796009325,222.09337796009325 0 0 0 846.1755953159659,265.8052621291099 Z "/><path class="wedge" fill="rgb(223,190,159)" d=" M 846.0366272796944,445.50886909972445 L 902.9970216524001,470.76017843071975 A 284.4,284.4 0 0,1 902.4521844015587,471.98143203643895 L 845.6111534910942,446.46256930591335 A 222.09337796009325,222.09337796009325 0 0 0 846.0366272796944,445.50886909972445 Z "/><path class="wedge" fill="url(#hiddenPattern)" d=" M 846.0366272796944,445.50886909972445 L 902.9970216524001,470.76017843071975 A 284.4,284.4 0 0,1 902.4521844015587,471.98143203643895 L 845.6111534910942,446.46256930591335 A 222.09337796009325,222.09337796009325 0 0 0 846.0366272796944,445.50886909972445 Z "/><path class="wedge" fill="rgb(219,184,149)" d=" M 833.3655948166513,442.60916308371384 L 901.610916502201,473.83745757743645 A 284.4,284.4 0 0,1 901.4058417600277,474.2845989356007 L 833.2146376343185,442.9383074669647 A 209.34914851281943,209.34914851281943 0 0 0 833.3655948166513,442.60916308371384 Z "/><path class="wedge" fill="url(#hiddenPattern)" d=" M 833.3655948166513,442.60916308371384 L 901.610916502201,473.83745757743645 A 284.4,284.4 0 0,1 901.4058417600277,474.2845989356007 L 833.2146376343185,442.9383074669647 A 209.34914851281943,209.34914851281943 0 0 0 833.3655948166513,442.60916308371384 Z "/><path class="wedge" fill="rgb(216,177,140)" d=" M 818.8727177902963,436.9177683927272 L 901.0862660060411,474.97735893908504 A 284.4,284.4 0 0,1 901.0809380240083,474.9888673837357 L 818.8690870404121,436.92561081483507 A 193.80419467337902,193.80419467337902 0 0 0 818.8727177902963,436.9177683927272 Z "/><path class="wedge" fill="url(#hiddenPattern)" d=" M 818.8727177902963,436.9177683927272 L 901.0862660060411,474.97735893908504 A 284.4,284.4 0 0,1 901.0809380240083,474.9888673837357 L 818.8690870404121,436.92561081483507 A 193.80419467337902,193.80419467337902 0 0 0 818.8727177902963,436.9177683927272 Z "/><path class="wedge" fill="rgb(213,171,130)" d=" M 801.2779252752748,428.7991252882502 L 901.0697195423162,475.01309491160487 A 284.4,284.4 0 0,1 900.7940155833194,475.60664232017837 L 801.1088320135873,429.1631565761833 A 174.42667054515513,174.42667054515513 0 0 0 801.2779252752748,428.7991252882502 Z "/><path class="wedge" fill="url(#hiddenPattern)" d=" M 801.2779252752748,428.7991252882502 L 901.0697195423162,475.01309491160487 A 284.4,284.4 0 0,1 900.7940155833194,475.60664232017837 L 801.1088320135873,429.1631565761833 A 174.42667054515513,174.42667054515513 0 0 0 801.2779252752748,428.7991252882502 Z "/><path class="wedge" fill="rgb(210,164,121)" d=" M 778.5519803184903,418.81715854806924 L 900.6750755725176,475.8616028004668 A 284.4,284.4 0 0,1 900.6552983642239,475.90393359372763 L 778.5415763640394,418.83942699154295 A 149.61083495143566,149.61083495143566 0 0 0 778.5519803184903,418.81715854806924 Z "/><path class="wedge" fill="url(#hiddenPattern)" d=" M 778.5519803184903,418.81715854806924 L 900.6750755725176,475.8616028004668 A 284.4,284.4 0 0,1 900.6552983642239,475.90393359372763 L 778.5415763640394,418.83942699154295 A 149.61083495143566,149.61083495143566 0 0 0 778.5519803184903,418.81715854806924 Z "/><path class="wedge" fill="rgb(207,159,111)" d=" M 748.7395556045759,404.9189546329882 L 900.6495051509978,475.91632985374497 A 284.4,284.4 0 0,1 893.5030834589306,490.1535004282028 L 745.8066586310722,410.76190041597135 A 116.7179793196856,116.7179793196856 0 0 0 748.7395556045759,404.9189546329882 Z "/><path class="wedge" fill="url(#hiddenPattern)" d=" M 748.7395556045759,404.9189546329882 L 900.6495051509978,475.91632985374497 A 284.4,284.4 0 0,1 893.5030834589306,490.1535004282028 L 745.8066586310722,410.76190041597135 A 116.7179793196856,116.7179793196856 0 0 0 748.7395556045759,404.9189546329882 Z "/><path class="wedge" fill="rgb(111,207,207)" d=" M 704.7114166444785,390.81162776949793 L 889.845666577914,496.74651107799184 A 284.4,284.4 0 0,1 645.5106584656675,639.8889178467908 L 643.6276646164168,426.5972294616977 A 71.1,71.1 0 0 0 704.7114166444785,390.81162776949793 Z "/><circle cx="643" cy="355.5" r="71.1"/><circle cx="643" cy="355.5" r="284.4"/><text x="643" y="355.5" text-anchor="middle" style="font-color:black;font-weight:bold" transform="rotate(360,643,355.5)">Root</text><rect fill="rgb(220,220,220)" x="1403.335" y="678.335" width="22" height="22"/><path class="line" d="M 644.255341462048,639.8972294482028 L 644.4907179861821,693.2217099697407 A 337.72499999999997,337.72499999999997 0 0,0 694.1113333811586,689.335 L 980.725,689.335 L 1298.7848697916668,689.335"/><text x="1396.0016666666668" y="689.335" style="font-color:black;font-weight:normal" text-anchor="end">[other Root]&#160;&#160;&#160;0.1%</text><path class="line" d=" M 704.7114166444785,390.81162776949793 A 71.1,71.1 0 1 0 643,426.6"/><line x1="889.845666577914" y1="496.74651107799184" x2="704.7114166444785" y2="390.81162776949793"/><text x="643" y="270.71460620409437" text-anchor="middle" style="font-color:black;font-weight:normal" transform="rotate(329.8892191703353,643,355.5)">Bacteria</text><path class="line" d=" M 749.7760108390751,308.3622210348825 A 116.7179793196856,116.7179793196856 0 1 0 643,472.2179793196856"/><line x1="903.1749761230767" y1="240.64207994501868" x2="749.7760108390751" y2="308.3622210348825"/><text x="643" y="228.9141639907894" text-anchor="middle" style="font-color:black;font-weight:normal" transform="rotate(303.09013072720603,643,355.5)">Firmicutes</text><path class="line" d=" M 764.4295224651396,268.1027860355156 A 149.61083495143566,149.61083495143566 0 1 0 643,505.11083495143566"/><line x1="873.8292457581417" y1="189.36385311219166" x2="764.4295224651396" y2="268.1027860355156"/><text x="643" y="193.4812472517046" text-anchor="middle" style="font-color:black;font-weight:normal" transform="rotate(297.12803556580843,643,355.5)">Bacilli</text><path class="line" d=" M 705.7627275909736,192.75632601293117 A 174.42667054515513,174.42667054515513 0 1 0 643,529.9266705451552"/><line x1="745.3336607359709" y1="90.14894595955491" x2="705.7627275909736" y2="192.75632601293117"/><text x="643" y="171.3845673907329" text-anchor="middle" style="font-color:black;font-weight:normal" transform="rotate(280.54466307432676,643,355.5)">Lactobacillales</text><path class="line" d=" M 705.5990828326378,172.08402277470609 A 193.80419467337902,193.80419467337902 0 1 0 643,549.304194673379"/><line x1="734.8616812582728" y1="86.34429874809734" x2="705.5990828326378" y2="172.08402277470609"/><text x="643" y="153.92332840690077" text-anchor="middle" style="font-color:black;font-weight:normal" transform="rotate(279.4222759936022,643,355.5)">Enterococcaceae</text><path class="line" d=" M 710.3292024129968,157.2732498236622 A 209.34914851281943,209.34914851281943 0 1 0 643,564.8491485128194"/><line x1="734.4664583175208" y1="86.2097346674982" x2="710.3292024129968" y2="157.2732498236622"/><path class="line" d=" M 710.4597099828007,143.89977300871993 A 222.09337796009325,222.09337796009325 0 1 0 643,577.5933779600932"/><line x1="729.3850228013366" y1="84.53692532816848" x2="710.4597099828007" y2="143.89977300871993"/><text x="389.7533110199534" y="355.5" text-anchor="end" style="font-color:black;font-weight:normal" transform="rotate(8.84133217888387,643,355.5)">Enterococcus faecalis&#160;&#160;&#160;55%</text><path class="line" d=" M 712.0699927991478,144.41990944560757 A 222.09337796009325,222.09337796009325 0 0 0 710.4597099828007,143.89977300871993"/><line x1="731.4470583161974" y1="85.20298211927832" x2="712.0699927991478" y2="144.41990944560757"/><path class="line" d=" M 710.4399159221985,157.31088898870019 A 209.34914851281943,209.34914851281943 0 0 0 710.3292024129968,157.2732498236622"/><line x1="734.6168621870405" y1="86.26086732608718" x2="710.4399159221985" y2="157.31088898870019"/><path class="line" d=" M 711.8489006807785,174.33738037871805 A 193.80419467337902,193.80419467337902 0 0 0 705.5990828326378,172.08402277470609"/><line x1="744.0330420691508" y1="89.65101201950534" x2="711.8489006807785" y2="174.33738037871805"/><path class="line" d=" M 781.4917358811285,249.45895846371644 A 174.42667054515513,174.42667054515513 0 0 0 705.7627275909736,192.75632601293117"/><line x1="868.8086424598499" y1="182.60171490023484" x2="781.4917358811285" y2="249.45895846371644"/><text x="643" y="171.3845673907329" text-anchor="middle" style="font-color:black;font-weight:normal" transform="rotate(396.8242940887755,643,355.5)">Bacillales</text><path class="line" d=" M 794.9995940367044,235.2661059198611 A 193.80419467337902,193.80419467337902 0 0 0 712.735206423747,174.6766971376908"/><line x1="866.0533999374609" y1="179.06150993522093" x2="794.9995940367044" y2="235.2661059198611"/><text x="643" y="153.92332840690077" text-anchor="middle" style="font-color:black;font-weight:normal" transform="rotate(396.37240781150894,643,355.5)">Staph...aceae</text><path class="line" d=" M 807.08986443376,225.4939140918673 A 209.34914851281943,209.34914851281943 0 0 0 718.3286383237527,160.17293523084982"/><line x1="865.9154394774321" y1="178.88724043098335" x2="807.08986443376" y2="225.4939140918673"/><path class="line" d=" M 783.7559585274148,183.70585378787345 A 222.09337796009325,222.09337796009325 0 0 0 722.9143051753655,148.28230683152705"/><line x1="823.2439810357142" y1="135.51030183120605" x2="783.7559585274148" y2="183.70585378787345"/><text x="896.2466889800467" y="355.5" text-anchor="start" style="font-color:black;font-weight:normal" transform="rotate(300.2090447478651,643,355.5)">5%&#160;&#160;&#160;Staphylococcus aureus</text><path class="line" d=" M 727.5939256284905,138.6891449005383 A 232.7296266962983,232.7296266962983 0 0 0 726.7414720870188,138.35846782594209"/><line x1="746.3753750661834" y1="90.55303959107988" x2="727.5939256284905" y2="138.6891449005383"/><path class="line" d=" M 810.0001134354094,209.08814717965888 A 222.09337796009325,222.09337796009325 0 0 0 783.7559585274148,183.70585378787345"/><line x1="856.8507356557227" y1="168.0134061872525" x2="810.0001134354094" y2="209.08814717965888"/><text x="896.2466889800467" y="355.5" text-anchor="start" style="font-color:black;font-weight:normal" transform="rotate(314.0435824588428,643,355.5)">3%&#160;&#160;&#160;Staphylococcus epidermidis</text><path class="line" d=" M 815.183953978655,215.22115438883444 A 222.09337796009325,222.09337796009325 0 0 0 810.0001134354094,209.08814717965888"/><line x1="863.4888635640838" y1="175.86698231054842" x2="815.183953978655" y2="215.22115438883444"/><path class="line" d=" M 807.1290644963601,225.54340659053815 A 209.34914851281943,209.34914851281943 0 0 0 807.08986443376,225.4939140918673"/><line x1="865.9686926092584" y1="178.9544757969831" x2="807.1290644963601" y2="225.54340659053815"/><path class="line" d=" M 796.7963722275395,237.57315079828035 A 193.80419467337902,193.80419467337902 0 0 0 794.9995940367044,235.2661059198611"/><line x1="868.6901009559022" y1="182.4470071610586" x2="796.7963722275395" y2="237.57315079828035"/><path class="line" d=" M 773.8442529046606,282.95219909131004 A 149.61083495143566,149.61083495143566 0 0 0 764.4295224651396,268.1027860355156"/><line x1="891.7260066302331" y1="217.59157521827308" x2="773.8442529046606" y2="282.95219909131004"/><text x="643" y="193.4812472517046" text-anchor="middle" style="font-color:black;font-weight:normal" transform="rotate(417.62474516076253,643,355.5)">Tissierellia</text><path class="line" d=" M 794.817955772067,269.6165225281439 A 174.42667054515513,174.42667054515513 0 0 0 784.5709451548594,253.60627651602937"/><line x1="890.5368387565379" y1="215.4683126630986" x2="794.817955772067" y2="269.6165225281439"/><text x="643" y="171.3845673907329" text-anchor="middle" style="font-color:black;font-weight:normal" transform="rotate(417.3796064363296,643,355.5)">Tissierellales</text><path class="line" d=" M 811.5021084869338,259.75499851974223 A 193.80419467337902,193.80419467337902 0 0 0 800.2984391041496,242.28663096438152"/><line x1="890.270188008302" y1="214.9979924615346" x2="811.5021084869338" y2="259.75499851974223"/><text x="643" y="153.92332840690077" text-anchor="middle" style="font-color:black;font-weight:normal" transform="rotate(417.3251461053393,643,355.5)">Pepto...aceae</text><line x1="884.4968156350801" y1="205.29131836636026" x2="820.767766250919" y2="244.9301701855286"/><path class="line" d=" M 820.767766250919,244.9301701855286 A 209.34914851281943,209.34914851281943 0 0 0 812.9152814744139,233.2058337265704"/><text x="889.8745742564097" y="355.5" text-anchor="start" style="font-color:black;font-weight:normal" transform="rotate(326.18742944996563,643,355.5)">1%&#160;&#160;&#160;Finegoldia magna</text><path class="line" d=" M 824.752419513693,251.6100390607394 A 209.34914851281943,209.34914851281943 0 0 0 820.767766250919,244.9301701855286"/><line x1="889.909951518284" y1="214.36589412463528" x2="824.752419513693" y2="251.6100390607394"/><path class="line" d=" M 811.6411370072717,260.00009014720683 A 193.80419467337902,193.80419467337902 0 0 0 811.5021084869338,259.75499851974223"/><line x1="890.4742068699717" y1="215.35765474319172" x2="811.6411370072717" y2="260.00009014720683"/><path class="line" d=" M 795.4088256276302,270.66950272293167 A 174.42667054515513,174.42667054515513 0 0 0 794.817955772067,269.6165225281439"/><line x1="891.5002429561193" y1="217.18518065388054" x2="795.4088256276302" y2="270.66950272293167"/><line x1="919.15" y1="355.5" x2="935.65" y2="355.5" class="tick" transform="rotate(332.7386710932183,643,355.5)"/><text x="938.4" y="355.5" text-anchor="start" style="font-color:black;font-weight:normal" transform="rotate(332.7386710932183,643,355.5)">6 more</text><path class="line" d=" M 778.0184597064357,291.0529870873187 A 149.61083495143566,149.61083495143566 0 0 0 773.8442529046606,282.95219909131004"/><line x1="899.66088925294" y1="232.99062106152832" x2="778.0184597064357" y2="291.0529870873187"/><path class="line" d=" M 748.7395556045759,404.9189546329882 A 116.7179793196856,116.7179793196856 0 0 0 749.7760108390751,308.3622210348825"/><line x1="900.6495051509978" y1="475.91632985374497" x2="748.7395556045759" y2="404.9189546329882"/><text x="643" y="495.24297826191065" text-anchor="middle" style="font-color:black;font-weight:normal" transform="rotate(270.6149983303314,643,355.5)">Actinobacteria</text><path class="line" d=" M 778.5519803184903,418.81715854806924 A 149.61083495143566,149.61083495143566 0 0 0 779.8670724727262,295.07809662373063"/><line x1="900.6750755725176" y1="475.8616028004668" x2="778.5519803184903" y2="418.81715854806924"/><text x="643" y="517.5187527482954" text-anchor="middle" style="font-color:black;font-weight:normal" transform="rotate(270.60891356495534,643,355.5)">Actinobacteria</text><path class="line" d=" M 801.2779252752748,428.7991252882502 A 174.42667054515513,174.42667054515513 0 0 0 802.5691098604553,285.055961389128"/><line x1="901.0697195423162" y1="475.01309491160487" x2="801.2779252752748" y2="428.7991252882502"/><text x="643" y="539.6154326092671" text-anchor="middle" style="font-color:black;font-weight:normal" transform="rotate(270.5146501278585,643,355.5)">Propionibacteriales</text><path class="line" d=" M 818.8727177902963,436.9177683927272 A 193.80419467337902,193.80419467337902 0 0 0 820.2960679384616,277.2301452246308"/><line x1="901.0862660060411" y1="474.97735893908504" x2="818.8727177902963" y2="436.9177683927272"/><text x="643" y="557.0766715930993" text-anchor="middle" style="font-color:black;font-weight:normal" transform="rotate(270.51068326424314,643,355.5)">Propionibacteriaceae</text><path class="line" d=" M 833.3655948166513,442.60916308371384 A 209.34914851281943,209.34914851281943 0 0 0 834.5169117992589,270.95215273043664"/><line x1="901.610916502201" y1="473.83745757743645" x2="833.3655948166513" y2="442.60916308371384"/><path class="line" d=" M 846.0366272796944,445.50886909972445 A 222.09337796009325,222.09337796009325 0 0 0 846.1755953159659,265.8052621291099"/><line x1="902.9970216524001" y1="470.76017843071975" x2="846.0366272796944" y2="445.50886909972445"/><text x="896.2466889800467" y="355.5" text-anchor="start" style="font-color:black;font-weight:normal" transform="rotate(360.04430784953405,643,355.5)">13%&#160;&#160;&#160;Cutibacterium avidum</text><path class="line" d=" M 845.6111534910942,446.46256930591335 A 222.09337796009325,222.09337796009325 0 0 0 846.0366272796944,445.50886909972445"/><line x1="902.4521844015587" y1="471.98143203643895" x2="845.6111534910942" y2="446.46256930591335"/><path class="line" d=" M 833.2146376343185,442.9383074669647 A 209.34914851281943,209.34914851281943 0 0 0 833.3655948166513,442.60916308371384"/><line x1="901.4058417600277" y1="474.2845989356007" x2="833.2146376343185" y2="442.9383074669647"/><path class="line" d=" M 818.8690870404121,436.92561081483507 A 193.80419467337902,193.80419467337902 0 0 0 818.8727177902963,436.9177683927272"/><line x1="901.0809380240083" y1="474.9888673837357" x2="818.8690870404121" y2="436.92561081483507"/><path class="line" d=" M 801.1088320135873,429.1631565761833 A 174.42667054515513,174.42667054515513 0 0 0 801.2779252752748,428.7991252882502"/><line x1="900.7940155833194" y1="475.60664232017837" x2="801.1088320135873" y2="429.1631565761833"/><path class="line" d=" M 778.5415763640394,418.83942699154295 A 149.61083495143566,149.61083495143566 0 0 0 778.5519803184903,418.81715854806924"/><line x1="900.6552983642239" y1="475.90393359372763" x2="778.5415763640394" y2="418.83942699154295"/><line x1="919.15" y1="355.5" x2="935.65" y2="355.5" class="tick" transform="rotate(386.6546004785636,643,355.5)"/><text x="938.4" y="355.5" text-anchor="start" style="font-color:black;font-weight:normal" transform="rotate(386.6546004785636,643,355.5)">31 more</text><path class="line" d=" M 745.8066586310722,410.76190041597135 A 116.7179793196856,116.7179793196856 0 0 0 748.7395556045759,404.9189546329882"/><line x1="893.5030834589306" y1="490.1535004282028" x2="745.8066586310722" y2="410.76190041597135"/><path class="line" d=" M 643.6276646164168,426.5972294616977 A 71.1,71.1 0 0 0 704.7114166444785,390.81162776949793"/><line x1="645.5106584656675" y1="639.8889178467908" x2="643.6276646164168" y2="426.5972294616977"/><text x="820.75" y="355.5" text-anchor="start" style="font-color:black;font-weight:normal" transform="rotate(419.636314806113,643,355.5)">17%&#160;&#160;&#160;No hits</text></svg>