<?xml version="1.0" encoding="UTF-8" standalone="no"?>
<!DOCTYPE svg PUBLIC "-//W3C//DTD SVG 1.1//EN" "http://www.w3.org/Graphics/SVG/1.1/DTD/svg11.dtd">
<svg width="1440" height="704" version="1.1" xmlns="http://www.w3.org/2000/svg"><title>Krona (snapshot) - Root</title><defs>	<style type="text/css">	text {font-size: 11px; font-family: sans-serif; dominant-baseline:central}	path {stroke-width:0.27499999999999997;}	path.wedge {stroke:none}	path.line {fill:none;stroke:black;}	line {stroke:black;stroke-width:0.27499999999999997;}	line.tick {stroke-width:0.5499999999999999;}	line.pattern {stroke-width:0.18333333333333332;}	circle {fill:none;stroke:black;stroke-width:0.27499999999999997;}	rect {stroke:black;stroke-width:0.27499999999999997;}	.highlight {stroke:black;stroke-width:1.375;}	.searchHighlight {fill:rgb(255, 255, 100);stroke:none;}	</style><pattern id="hiddenPattern" patternUnits="userSpaceOnUse" x="0" y="0" width="6.6" height="6.6"><line class="pattern" x1="0" y1="0" x2="3.3" y2="3.3"/><line class="pattern" x1="3.3" y1="6.6" x2="6.6" y2="3.3"/></pattern></defs><path class="wedge" fill="rgb(220,220,220)" d=" M 645.013270964328,422.3999987491584 L 645.0530838573115,633.5999949966337 A 281.6,281.6 0 0,1 645.0000000000001,633.6 L 645,422.4 A 70.4,70.4 0 0 0 645.013270964328,422.3999987491584 Z "/><path class="wedge" fill="rgb(208,114,114)" d=" M 645,422.4 L 645,633.6 A 281.6,281.6 0 1,1 711.1418787109012,625.7221435700671 L 661.5354696777254,420.4305358925168 A 70.4,70.4 0 1 0 645,422.4 Z "/><path class="wedge" fill="rgb(161,208,114)" d=" M 661.5354696777254,420.4305358925168 L 711.1418787109012,625.7221435700671 A 281.6,281.6 0 0,1 645.1615595578239,633.5999536550198 L 645.0403898894559,422.39998841375495 A 70.4,70.4 0 0 0 661.5354696777254,420.4305358925168 Z "/><path class="wedge" fill="rgb(161,208,114)" d=" M 646.2103959534159,469.5764906131086 L 647.8987890270058,633.5850795446679 A 281.6,281.6 0 0,1 645.1615595578239,633.5999536550198 L 645.0674595609421,469.5827013317269 A 117.58272068317888,117.58272068317888 0 0 0 646.2103959534159,469.5764906131086 Z "/><path class="wedge" fill="rgb(170,212,127)" d=" M 672.6176919386527,466.29330380752907 L 711.1418787109012,625.7221435700671 A 281.6,281.6 0 0,1 648.9788489260309,633.5718891530613 L 646.6613774215556,469.5709829350831 A 117.58272068317888,117.58272068317888 0 0 0 672.6176919386527,466.29330380752907 Z "/><path class="wedge" fill="rgb(170,212,127)" d=" M 648.2759043215822,508.2302192236423 L 650.9034156721365,633.5381140865336 A 281.6,281.6 0 0,1 648.9788489260309,633.5718891530613 L 647.2079299706487,508.2489615742652 A 156.26456075448297,156.26456075448297 0 0 0 648.2759043215822,508.2302192236423 Z "/><path class="wedge" fill="rgb(178,216,140)" d=" M 681.7032373019719,503.89300615678997 L 711.1418787109012,625.7221435700671 A 281.6,281.6 0 0,1 651.3002973687526,633.5295122239679 L 648.4961406283762,508.2254459059027 A 156.26456075448297,156.26456075448297 0 0 0 681.7032373019719,503.89300615678997 Z "/><path class="wedge" fill="rgb(178,216,140)" d=" M 660.0941742403105,539.9430147788011 L 667.5434145362112,632.6961960216927 A 281.6,281.6 0 0,1 651.3002973687526,633.5295122239679 L 649.2184286722389,540.5009701823275 A 188.54816599516812,188.54816599516812 0 0 0 660.0941742403105,539.9430147788011 Z "/><path class="wedge" fill="rgb(187,221,153)" d=" M 689.2859727500543,535.2734664858035 L 711.1418787109012,625.7221435700671 A 281.6,281.6 0 0,1 684.6506870001173,630.7945175580372 L 671.5485238434679,538.6697264739901 A 188.54816599516812,188.54816599516812 0 0 0 689.2859727500543,535.2734664858035 Z "/><path class="wedge" fill="rgb(187,221,153)" d=" M 678.1366936894223,565.3387130690767 L 688.2210716874646,630.2633625941207 A 281.6,281.6 0 0,1 684.6506870001173,630.7945175580372 L 675.3993542593973,565.745938495327 A 215.89684333643334,215.89684333643334 0 0 0 678.1366936894223,565.3387130690767 Z "/><path class="wedge" fill="rgb(179,221,153)" d=" M 695.7095981037813,561.8570552132794 L 711.1418787109012,625.7221435700671 A 281.6,281.6 0 0,1 688.2210716874646,630.2633625941207 L 678.1366936894223,565.3387130690767 A 215.89684333643334,215.89684333643334 0 0 0 695.7095981037813,561.8570552132794 Z "/><path class="wedge" fill="url(#hiddenPattern)" d=" M 695.7095981037813,561.8570552132794 L 711.1418787109012,625.7221435700671 A 281.6,281.6 0 0,1 688.2210716874646,630.2633625941207 L 678.1366936894223,565.3387130690767 A 215.89684333643334,215.89684333643334 0 0 0 695.7095981037813,561.8570552132794 Z "/><path class="wedge" fill="rgb(154,216,140)" d=" M 671.5485238434679,538.6697264739901 L 684.6506870001173,630.7945175580372 A 281.6,281.6 0 0,1 667.5434145362112,632.6961960216927 L 660.0941742403105,539.9430147788011 A 188.54816599516812,188.54816599516812 0 0 0 671.5485238434679,538.6697264739901 Z "/><path class="wedge" fill="url(#hiddenPattern)" d=" M 671.5485238434679,538.6697264739901 L 684.6506870001173,630.7945175580372 A 281.6,281.6 0 0,1 667.5434145362112,632.6961960216927 L 660.0941742403105,539.9430147788011 A 188.54816599516812,188.54816599516812 0 0 0 671.5485238434679,538.6697264739901 Z "/><path class="wedge" fill="rgb(131,212,127)" d=" M 648.4961406283762,508.2254459059027 L 651.3002973687526,633.5295122239679 A 281.6,281.6 0 0,1 650.9034156721365,633.5381140865336 L 648.2759043215822,508.2302192236423 A 156.26456075448297,156.26456075448297 0 0 0 648.4961406283762,508.2254459059027 Z "/><path class="wedge" fill="url(#hiddenPattern)" d=" M 648.4961406283762,508.2254459059027 L 651.3002973687526,633.5295122239679 A 281.6,281.6 0 0,1 650.9034156721365,633.5381140865336 L 648.2759043215822,508.2302192236423 A 156.26456075448297,156.26456075448297 0 0 0 648.4961406283762,508.2254459059027 Z "/><path class="wedge" fill="rgb(116,208,114)" d=" M 646.6613774215556,469.5709829350831 L 648.9788489260309,633.5718891530613 A 281.6,281.6 0 0,1 647.8987890270058,633.5850795446679 L 646.2103959534159,469.5764906131086 A 117.58272068317888,117.58272068317888 0 0 0 646.6613774215556,469.5709829350831 Z "/><path class="wedge" fill="url(#hiddenPattern)" d=" M 646.6613774215556,469.5709829350831 L 648.9788489260309,633.5718891530613 A 281.6,281.6 0 0,1 647.8987890270058,633.5850795446679 L 646.2103959534159,469.5764906131086 A 117.58272068317888,117.58272068317888 0 0 0 646.6613774215556,469.5709829350831 Z "/><path class="wedge" fill="rgb(114,208,208)" d=" M 645.0403898894559,422.39998841375495 L 645.1615595578239,633.5999536550198 A 281.6,281.6 0 0,1 645.0646238261075,633.599992584803 L 645.0161559565269,422.39999814620074 A 70.4,70.4 0 0 0 645.0403898894559,422.39998841375495 Z "/><path class="wedge" fill="url(#hiddenPattern)" d=" M 645.0403898894559,422.39998841375495 L 645.1615595578239,633.5999536550198 A 281.6,281.6 0 0,1 645.0646238261075,633.599992584803 L 645.0161559565269,422.39999814620074 A 70.4,70.4 0 0 0 645.0403898894559,422.39998841375495 Z "/><rect fill="rgb(114,208,208)" x="1407.44" y="612.7733333333334" width="22" height="22"/><rect fill="url(#hiddenPattern)" style="stroke:none" x="1407.44" y="612.7733333333334" width="22" height="22"/><path class="line" d="M 645.1130916936406,633.5999772909594 L 645.130762270772,677.5999737426718 A 325.6,325.6 0 0,0 824.3170803043839,623.7733333333334 L 988.2,623.7733333333334 L 1258.6066666666668,623.7733333333334"/><text x="1400.1066666666668" y="623.7733333333334" style="font-color:black;font-weight:normal" text-anchor="end">Euryarchaeota   0.005%</text><path class="wedge" fill="rgb(161,114,208)" d=" M 645.0161559565269,422.39999814620074 L 645.0646238261075,633.599992584803 A 281.6,281.6 0 0,1 645.0530838573115,633.5999949966337 L 645.013270964328,422.3999987491584 A 70.4,70.4 0 0 0 645.0161559565269,422.39999814620074 Z "/><path class="wedge" fill="url(#hiddenPattern)" d=" M 645.0161559565269,422.39999814620074 L 645.0646238261075,633.599992584803 A 281.6,281.6 0 0,1 645.0530838573115,633.5999949966337 L 645.013270964328,422.3999987491584 A 70.4,70.4 0 0 0 645.0161559565269,422.39999814620074 Z "/><rect fill="rgb(161,114,208)" x="1407.44" y="642.1066666666668" width="22" height="22"/><rect fill="url(#hiddenPattern)" style="stroke:none" x="1407.44" y="642.1066666666668" width="22" height="22"/><path class="line" d="M 645.0588538417219,633.5999938498319 L 645.0698889370448,686.3999926966753 A 334.40000000000003,334.40000000000003 0 0,0 790.4583627327381,653.1066666666668 L 977.2,653.1066666666668 L 1259.6066666666668,653.1066666666668"/><text x="1400.1066666666668" y="653.1066666666668" style="font-color:black;font-weight:normal" text-anchor="end">Caudovirales   0.0007%</text><circle cx="645" cy="352" r="70.4"/><circle cx="645" cy="352" r="281.6"/><text x="645" y="352" text-anchor="middle" style="font-color:black;font-weight:bold" transform="rotate(360,645,352)">Root</text><rect fill="rgb(220,220,220)" x="1407.44" y="671.44" width="22" height="22"/><path class="line" d="M 645.0265419287737,633.5999987491584 L 645.0323479756929,695.1999984755369 A 343.2,343.2 0 0,0 737.7127089454295,682.44 L 966.2,682.44 L 1273.6066666666668,682.44"/><text x="1400.1066666666668" y="682.44" style="font-color:black;font-weight:normal" text-anchor="end">[other Root]   0.003%</text><path class="line" d=" M 661.5354696777254,420.4305358925168 A 70.4,70.4 0 1 0 645,422.4"/><line x1="711.1418787109012" y1="625.7221435700671" x2="661.5354696777254" y2="420.4305358925168"/><text x="469" y="352" text-anchor="end" style="font-color:black;font-weight:normal" transform="rotate(83.20775981717048,645,352)">No hits   96%</text><path class="line" d=" M 645.0403898894559,422.39998841375495 A 70.4,70.4 0 0 0 661.5354696777254,420.4305358925168"/><line x1="645.1615595578239" y1="633.5999536550198" x2="645.0403898894559" y2="422.39998841375495"/><text x="645" y="436.5548162049537" text-anchor="middle" style="font-color:black;font-weight:normal" transform="rotate(353.19132394836527,645,352)">Bacteria</text><path class="line" d=" M 646.6613774215556,469.5709829350831 A 117.58272068317888,117.58272068317888 0 0 0 672.6176919386527,466.29330380752907"/><line x1="648.9788489260309" y1="633.5718891530613" x2="646.6613774215556" y2="469.5709829350831"/><text x="645" y="481.1872727045701" text-anchor="middle" style="font-color:black;font-weight:normal" transform="rotate(352.80296784830995,645,352)">Proteobacteria</text><path class="line" d=" M 648.4961406283762,508.2254459059027 A 156.26456075448297,156.26456075448297 0 0 0 681.7032373019719,503.89300615678997"/><line x1="651.3002973687526" y1="633.5295122239679" x2="648.4961406283762" y2="508.2254459059027"/><text x="645" y="517.9496423266885" text-anchor="middle" style="font-color:black;font-weight:normal" transform="rotate(352.56676093376603,645,352)">Gammaproteobacteria</text><path class="line" d=" M 671.5485238434679,538.6697264739901 A 188.54816599516812,188.54816599516812 0 0 0 689.2859727500543,535.2734664858035"/><line x1="684.6506870001173" y1="630.7945175580372" x2="671.5485238434679" y2="538.6697264739901"/><text x="645" y="548.7527691975477" text-anchor="middle" style="font-color:black;font-weight:normal" transform="rotate(349.16054452294236,645,352)">Alteromonadales</text><line x1="918.35" y1="352" x2="934.85" y2="352" class="tick" transform="rotate(438.7933202542081,645,352)"/><text x="937.6" y="352" text-anchor="start" style="font-color:black;font-weight:normal" transform="rotate(438.7933202542081,645,352)">7 more</text><path class="line" d=" M 678.1366936894223,565.3387130690767 A 215.89684333643334,215.89684333643334 0 0 0 695.7095981037813,561.8570552132794"/><line x1="688.2210716874646" y1="630.2633625941207" x2="678.1366936894223" y2="565.3387130690767"/><line x1="918.35" y1="352" x2="934.85" y2="352" class="tick" transform="rotate(443.6569286318052,645,352)"/><text x="937.6" y="352" text-anchor="start" style="font-color:black;font-weight:normal" transform="rotate(443.6569286318052,645,352)">14 more</text><path class="line" d=" M 660.0941742403105,539.9430147788011 A 188.54816599516812,188.54816599516812 0 0 0 671.5485238434679,538.6697264739901"/><line x1="667.5434145362112" y1="632.6961960216927" x2="660.0941742403105" y2="539.9430147788011"/><path class="line" d=" M 648.2759043215822,508.2302192236423 A 156.26456075448297,156.26456075448297 0 0 0 648.4961406283762,508.2254459059027"/><line x1="650.9034156721365" y1="633.5381140865336" x2="648.2759043215822" y2="508.2302192236423"/><path class="line" d=" M 646.2103959534159,469.5764906131086 A 117.58272068317888,117.58272068317888 0 0 0 646.6613774215556,469.5709829350831"/><line x1="647.8987890270058" y1="633.5850795446679" x2="646.2103959534159" y2="469.5764906131086"/><line x1="645.0646238261075" y1="633.599992584803" x2="645.0161559565269" y2="422.39999814620074"/><path class="line" d=" M 645.0161559565269,422.39999814620074 A 70.4,70.4 0 0 0 645.0403898894559,422.39998841375495"/><line x1="645.0530838573115" y1="633.5999949966337" x2="645.013270964328" y2="422.3999987491584"/><path class="line" d=" M 645.013270964328,422.3999987491584 A 70.4,70.4 0 0 0 645.0161559565269,422.39999814620074"/></svg>